<?xml version="1.0" encoding="UTF-8" standalone="no"?>
<!-- Created with Inkscape (http://www.inkscape.org/) -->

<svg
   width="300"
   height="300"
   viewBox="0 0 300 300"
   version="1.1"
   id="svg1"
   inkscape:version="1.3.2 (091e20e, 2023-11-25)"
   sodipodi:docname="Zeichnung.svg"
   inkscape:export-filename="Zeichnung.svg"
   inkscape:export-xdpi="96"
   inkscape:export-ydpi="96"
   xmlns:inkscape="http://www.inkscape.org/namespaces/inkscape"
   xmlns:sodipodi="http://sodipodi.sourceforge.net/DTD/sodipodi-0.dtd"
   xmlns="http://www.w3.org/2000/svg"
   xmlns:svg="http://www.w3.org/2000/svg">
  <sodipodi:namedview
     id="namedview1"
     pagecolor="#ffffff"
     bordercolor="#000000"
     borderopacity="0.25"
     inkscape:showpageshadow="2"
     inkscape:pageopacity="0.0"
     inkscape:pagecheckerboard="0"
     inkscape:deskcolor="#d1d1d1"
     inkscape:document-units="px"
     inkscape:zoom="0.78666667"
     inkscape:cx="150"
     inkscape:cy="149.36441"
     inkscape:window-width="1392"
     inkscape:window-height="1212"
     inkscape:window-x="2672"
     inkscape:window-y="203"
     inkscape:window-maximized="0"
     inkscape:current-layer="layer2"
     inkscape:export-bgcolor="#ffffffff" />
  <defs
     id="defs1">
    <clipPath
       clipPathUnits="userSpaceOnUse"
       id="clipPath60-7">
      <path
         d="M 0,81 H 190.969 V 0 H 0 Z"
         transform="translate(-50.568802,-32.901401)"
         id="path60-1" />
    </clipPath>
    <clipPath
       clipPathUnits="userSpaceOnUse"
       id="clipPath62-8">
      <path
         d="M 0,81 H 190.969 V 0 H 0 Z"
         transform="translate(-47.348101,-60.280301)"
         id="path62-9" />
    </clipPath>
  </defs>
  <g
     inkscape:label="Ebene 1"
     inkscape:groupmode="layer"
     id="layer1">
    <path
       id="path59"
       d="m 0,0 c -0.589,-0.173 -1.059,-0.239 -1.674,-0.239 -5.046,0 -12.456,17.634 -12.456,23.503 0,2.16 0.511,2.881 1.234,3.499 -6.176,-0.721 -13.586,-2.987 -15.956,-5.868 -0.512,-0.722 -0.823,-1.853 -0.823,-3.295 0,-9.162 9.779,-29.951 16.676,-29.951 3.192,0 8.573,5.247 12.999,12.351"
       style="fill:#f57a14;fill-opacity:1;fill-rule:nonzero;stroke:none"
       transform="matrix(7.0922922,0,0,-7.0922922,221.49754,203.12802)"
       clip-path="url(#clipPath60-7)" />
    <path
       id="path61"
       d="m 0,0 c 6.381,0 12.767,-1.029 12.767,-4.631 0,-7.308 -4.635,-16.164 -7,-16.164 -4.221,0 -9.471,11.737 -9.471,17.606 C -3.704,-0.513 -2.675,0 0,0"
       style="fill:#f57a14;fill-opacity:1;fill-rule:nonzero;stroke:none"
       transform="matrix(7.0922922,0,0,-7.0922922,198.65536,8.949153)"
       clip-path="url(#clipPath62-8)" />
  </g>
  <g
     inkscape:groupmode="layer"
     id="layer2"
     inkscape:label="Ebene 2">
    <text
       xml:space="preserve"
       style="font-style:normal;font-variant:normal;font-weight:normal;font-stretch:normal;font-size:180.376px;font-family:Share-BoldItalic;-inkscape-font-specification:Share-BoldItalic;opacity:0.96;fill:none;fill-rule:evenodd;stroke:#000000;stroke-width:2.55651"
       x="27.358616"
       y="290.29788"
       id="text1"><tspan
         sodipodi:role="line"
         id="tspan1"
         x="27.358616"
         y="290.29788"
         style="stroke-width:2.55651">JHE</tspan></text>
  </g>
</svg>
